<svg version="1.1" xmlns="http://www.w3.org/2000/svg" xmlns:xlink="http://www.w3.org/1999/xlink" x="0px" y="0px"
	 viewBox="0 0 463 463" style="enable-background:new 0 0 463 463;" xml:space="preserve">
<g>
	<path d="M395.195,67.805C351.471,24.08,293.336,0,231.5,0S111.529,24.08,67.805,67.805S0,169.664,0,231.5
		s24.08,119.971,67.805,163.695S169.664,463,231.5,463s119.971-24.08,163.695-67.805S463,293.336,463,231.5
		S438.92,111.529,395.195,67.805z M384.589,384.589C343.697,425.48,289.329,448,231.5,448s-112.197-22.52-153.089-63.411
		C37.52,343.697,15,289.329,15,231.5S37.52,119.303,78.411,78.411C119.303,37.52,173.671,15,231.5,15s112.197,22.52,153.089,63.411
		C425.48,119.303,448,173.671,448,231.5S425.48,343.697,384.589,384.589z"/>
	<path d="M231.5,64C139.141,64,64,139.14,64,231.5S139.141,399,231.5,399S399,323.86,399,231.5S323.859,64,231.5,64z M231.5,384
		C147.411,384,79,315.589,79,231.5S147.411,79,231.5,79S384,147.411,384,231.5S315.589,384,231.5,384z"/>
	<path d="M231.5,88C152.374,88,88,152.374,88,231.5S152.374,375,231.5,375S375,310.626,375,231.5S310.626,88,231.5,88z M231.5,360
		C160.645,360,103,302.355,103,231.5S160.645,103,231.5,103S360,160.645,360,231.5S302.355,360,231.5,360z"/>
	<path d="M231.5,112C165.607,112,112,165.607,112,231.5S165.607,351,231.5,351S351,297.393,351,231.5S297.393,112,231.5,112z
		 M334.714,247.873h-75.219l64.658-64.658C331.715,197.666,336,214.091,336,231.5C336,237.069,335.557,242.537,334.714,247.873z
		 M224.718,215.127h13.563l9.591,9.591v13.563l-9.591,9.591h-13.563l-9.591-9.591v-13.563L224.718,215.127z M316.025,170.129
		l-53.152,53.152v-91.467C284.435,138.615,302.996,152.234,316.025,170.129z M247.873,128.286v75.219l-64.658-64.658
		C197.666,131.285,214.091,127,231.5,127C237.069,127,242.537,127.443,247.873,128.286z M170.129,146.975l53.153,53.153h-91.468
		C138.615,178.565,152.234,160.004,170.129,146.975z M128.286,215.127h75.219l-64.658,64.658C131.285,265.334,127,248.909,127,231.5
		C127,225.931,127.443,220.463,128.286,215.127z M146.975,292.871l53.152-53.152v91.467
		C178.565,324.385,160.004,310.766,146.975,292.871z M215.127,334.714v-75.219l64.658,64.658C265.334,331.715,248.909,336,231.5,336
		C225.931,336,220.463,335.557,215.127,334.714z M292.871,316.025l-53.153-53.153h91.468
		C324.385,284.435,310.766,302.996,292.871,316.025z"/>
	<path d="M157.75,62.373C181.107,52.172,205.921,47,231.5,47s50.393,5.172,73.75,15.373c0.978,0.427,1.996,0.629,2.998,0.629
		c2.891,0,5.646-1.682,6.877-4.5c1.658-3.796-0.075-8.217-3.871-9.875C285.991,37.594,259.158,32,231.5,32
		s-54.491,5.594-79.754,16.627c-3.796,1.658-5.529,6.079-3.871,9.875C149.533,62.298,153.952,64.033,157.75,62.373z"/>
	<path d="M305.25,400.627c-18.56,8.105-38.197,13.064-58.368,14.738c-4.128,0.342-7.196,3.966-6.854,8.094
		c0.325,3.917,3.604,6.88,7.466,6.88c0.208,0,0.418-0.009,0.629-0.026c21.817-1.81,43.058-7.173,63.132-15.94
		c3.796-1.658,5.529-6.079,3.871-9.875C313.468,400.703,309.049,398.97,305.25,400.627z"/>
	<path d="M216.118,415.365c-20.171-1.674-39.809-6.632-58.368-14.738c-3.796-1.657-8.218,0.076-9.875,3.872
		c-1.658,3.796,0.075,8.217,3.871,9.875c20.074,8.767,41.314,14.13,63.132,15.94c0.211,0.018,0.42,0.026,0.629,0.026
		c3.86,0,7.141-2.963,7.466-6.88C223.314,419.331,220.246,415.707,216.118,415.365z"/>
</g>
</svg>
